<svg xmlns="http://www.w3.org/2000/svg" width="1280" height="640" viewBox="0 0 1280 640" role="img" aria-labelledby="title desc">
  <title id="title">Abel Strategy Research Skills</title>
  <desc id="desc">AI agent skills for strategy discovery with Abel: explore market ideas, analyze causal drivers, and develop investment strategies.</desc>
  <defs>
    <pattern id="dot-grid" width="12" height="12" patternUnits="userSpaceOnUse">
      <circle cx="2" cy="2" r="1.25" fill="#eee8cf"/>
    </pattern>
    <linearGradient id="line" x1="155" y1="360" x2="1115" y2="182" gradientUnits="userSpaceOnUse">
      <stop offset="0" stop-color="#9d8f27"/>
      <stop offset="0.72" stop-color="#b6a536"/>
      <stop offset="1" stop-color="#f08a2b"/>
    </linearGradient>
  </defs>

  <rect width="1280" height="640" fill="#fbfaf6"/>
  <rect x="0" y="0" width="1280" height="640" fill="url(#dot-grid)" opacity="0.75"/>

  <g stroke="#ece8dc" stroke-width="1.5">
    <line x1="96" y1="150" x2="1184" y2="150"/>
    <line x1="96" y1="245" x2="1184" y2="245"/>
    <line x1="96" y1="340" x2="1184" y2="340"/>
    <line x1="96" y1="435" x2="1184" y2="435"/>
    <line x1="210" y1="112" x2="210" y2="464"/>
    <line x1="390" y1="112" x2="390" y2="464"/>
    <line x1="570" y1="112" x2="570" y2="464"/>
    <line x1="750" y1="112" x2="750" y2="464"/>
    <line x1="930" y1="112" x2="930" y2="464"/>
    <line x1="1110" y1="112" x2="1110" y2="464"/>
  </g>

  <path d="M118 394 C 230 395, 310 394, 390 390 S 545 360, 622 338 S 770 312, 842 290 S 982 244, 1062 216 S 1128 193, 1164 190" fill="none" stroke="#cfc79d" stroke-width="20" stroke-linecap="round" opacity="0.22"/>
  <path d="M118 394 C 230 395, 310 394, 390 390 S 545 360, 622 338 S 770 312, 842 290 S 982 244, 1062 216 S 1128 193, 1164 190" fill="none" stroke="url(#line)" stroke-width="7" stroke-linecap="round"/>
  <line x1="1164" y1="112" x2="1164" y2="464" stroke="#a8a8a8" stroke-width="3" stroke-dasharray="8 8"/>
  <line x1="1164" y1="190" x2="1184" y2="190" stroke="#f08a2b" stroke-width="7" stroke-linecap="round"/>

  <g font-family="Inter, ui-sans-serif, system-ui, -apple-system, BlinkMacSystemFont, 'Segoe UI', sans-serif" letter-spacing="0">
    <text x="96" y="118" font-size="24" font-weight="700" fill="#8d8d8d">ABEL</text>
    <text x="96" y="214" font-size="60" font-weight="760" fill="#202124">Abel Strategy Research Skills</text>
    <text x="100" y="282" font-size="34" font-weight="650" fill="#8a7e26">AI agent skills for strategy discovery</text>
    <text x="100" y="526" font-size="30" font-weight="650" fill="#202124">Explore market ideas</text>
    <text x="430" y="526" font-size="30" font-weight="650" fill="#202124">Analyze causal drivers</text>
    <text x="805" y="526" font-size="30" font-weight="650" fill="#202124">Develop investment strategies</text>
    <text x="96" y="590" font-size="24" font-weight="650" fill="#8d8d8d">Claude Code · Codex · OpenCode · ClawHub</text>
  </g>
</svg>
